<svg xmlns="http://www.w3.org/2000/svg" version="1.1" xmlns:xlink="http://www.w3.org/1999/xlink" xmlns:svgjs="http://svgjs.com/svgjs" width="512" height="512" x="0" y="0" viewBox="0 0 512 512" style="enable-background:new 0 0 512 512" xml:space="preserve" class=""><g><path d="M416 112a32 32 0 0 0 0-64h-16.8A40.067 40.067 0 0 0 360 16H152a40.067 40.067 0 0 0-39.195 32H96a32 32 0 0 0 0 64h.938l10 80H96a8 8 0 0 0-7.938 8.992l24 192A8 8 0 0 0 120 400h12.938l11.124 88.992A8 8 0 0 0 152 496h208a8 8 0 0 0 7.938-7.008L379.062 400H392a8 8 0 0 0 7.938-7.008l24-192A8 8 0 0 0 416 192h-10.938l10-80zM80 80a16.019 16.019 0 0 1 16-16h96V48h-62.624A24.039 24.039 0 0 1 152 32h208a24.039 24.039 0 0 1 22.624 16H352v16h64a16 16 0 0 1 0 32H96a16.019 16.019 0 0 1-16-16zm272.938 400H159.062l-10-80h213.876zm32-96H127.062l-22-176h301.875zm4-192H123.062l-10-80h285.875z"  data-original="#000000" class=""></path><path d="M320 48h16v16h-16zM256 368c35.29 0 64-32.3 64-72s-28.71-72-64-72-64 32.3-64 72 28.71 72 64 72zm48-72c0 30.878-21.533 56-48 56a41.768 41.768 0 0 1-17.032-3.655l22.532-22.534a23.969 23.969 0 0 0 4.5-27.7l-5.685-11.371a7.992 7.992 0 0 1 1.5-9.235l24.7-24.7C297.186 263.081 304 278.63 304 296zm-48-56a41.768 41.768 0 0 1 17.032 3.655L250.5 266.189a23.969 23.969 0 0 0-4.5 27.7l5.685 11.371a7.992 7.992 0 0 1-1.5 9.235l-24.7 24.7C214.814 328.919 208 313.37 208 296c0-30.878 21.533-56 48-56zM288 448h16v16h-16zM320 416h16v16h-16zM320 448h16v16h-16z" data-original="#000000" class=""></path></g></svg>