<svg xmlns="http://www.w3.org/2000/svg" version="1.1" xmlns:xlink="http://www.w3.org/1999/xlink" xmlns:svgjs="http://svgjs.com/svgjs" width="512" height="512" x="0" y="0" viewBox="0 0 512 512.001" style="enable-background:new 0 0 512 512" xml:space="preserve" class=""><g><path d="M426.668 93.867H335a257.066 257.066 0 0 0-103.32-33.98l7.168-50.14c.668-4.669-2.57-8.993-7.235-9.661A8.43 8.43 0 0 0 230.398 0H179.2c-4.71 0-8.535 3.82-8.535 8.531 0 .406.031.813.086 1.215l7.168 50.14a257.066 257.066 0 0 0-103.32 33.981h-49c-2.262 0-4.43.899-6.032 2.5L2.5 113.434a8.535 8.535 0 0 0-.574 11.437l75.898 92.73 7.61 48.239a8.534 8.534 0 0 0 8.433 7.226v42.668c0 4.711 3.82 8.532 8.531 8.532h8.536v17.066H93.867a8.538 8.538 0 0 0-8.414 7.125L59.852 502.059A8.533 8.533 0 0 0 68.266 512h273.066c4.715 0 8.535-3.824 8.531-8.535 0-.473-.039-.942-.117-1.406l-25.598-153.602a8.538 8.538 0 0 0-8.414-7.125h-17.07v-17.066h8.535a8.533 8.533 0 0 0 8.535-8.532v-42.668c4.2 0 7.774-3.054 8.43-7.203l16.375-103.73H389l2.746 2.746-23.183 108.187h-18.696a8.534 8.534 0 0 0-8.535 8.536v42.664a8.534 8.534 0 0 0 8.535 8.535h68.266a8.53 8.53 0 0 0 8.32-6.64l42.668-187.735a8.537 8.537 0 0 0-2.289-7.926l-34.133-34.133a8.527 8.527 0 0 0-6.031-2.5zm-237.629-76.8h31.52l-5.973 41.593a260.928 260.928 0 0 0-19.625 0zm107.996 76.8H112.563a239.592 239.592 0 0 1 184.472 0zM239.367 256h-69.12l-7.68-145.066h84.413zM20.027 120.04l9.106-9.106H60.98l11.551 73.3zm58.223-9.106h67.25L153.18 256h-52.028zm22.844 247.464h52.054l-7.585 136.536h-67.22zm61.523 136.536 7.59-136.536h69.188l7.585 136.536zm168.637 0H264.07l-7.586-136.536h52.055zm-49.656-153.602H128v-17.066h153.598zm17.066-34.133h-187.73v-34.133h187.73zM308.445 256h-51.984l7.637-145.066h67.25zm102.86 59.734h-52.907v-25.601h17.067a8.536 8.536 0 0 0 8.348-6.75l25.597-119.465a8.526 8.526 0 0 0-2.312-7.816l-8.532-8.536a8.536 8.536 0 0 0-6.035-2.5h-49.297l5.387-34.132h74.512l28.281 28.304zm0 0"   opacity="1" data-original="#000000"></path></g></svg>