<svg xmlns="http://www.w3.org/2000/svg" version="1.1" xmlns:xlink="http://www.w3.org/1999/xlink" xmlns:svgjs="http://svgjs.com/svgjs" width="512" height="512" x="0" y="0" viewBox="0 0 64 64" style="enable-background:new 0 0 512 512" xml:space="preserve" class=""><g><path d="M45.336 9.072C45.126 8.988 40.159 7 37.001 7s-8.124 1.988-8.334 2.072a1 1 0 0 0-.624.992c.194 3.005 1.136 5.652 1.892 7.344a.998.998 0 0 0 .913.592h12.307a.998.998 0 0 0 .913-.592c.757-1.691 1.699-4.338 1.893-7.344a1.003 1.003 0 0 0-.625-.992zM42.495 16H31.507c-.508-1.239-1.163-3.169-1.404-5.335C31.531 10.138 34.86 9 37.001 9c2.138 0 5.469 1.138 6.898 1.665-.24 2.166-.896 4.097-1.404 5.335z" data-original="#000000" class=""></path><path d="M55.664 32.504A2.994 2.994 0 0 0 54 32h-6.183c.112-.315.184-.647.184-1v-3a1 1 0 0 0-1-1h-20a1 1 0 0 0-1 1v3a2.98 2.98 0 0 0 1.104 2.305C22.578 36.791 22.001 46.376 22.001 51c0 1.13.391 2.162 1.025 3H21c-.551 0-1-.448-1-1V22c0-.552.449-1 1-1h10.001v2a1 1 0 0 0 1 1H33v1a1 1 0 1 0 2 0v-1h4v1a1 1 0 1 0 2 0v-1h1.001a1 1 0 0 0 1-1v-2h2a1 1 0 0 0 .857-.485c.128-.214 3.143-5.309 3.143-11.515V3c0-1.654-1.346-3-3-3h-38c-2.206 0-4 1.794-4 4L4 63a1 1 0 0 0 1 1h49.001a1 1 0 0 0 1-1v-6c0-1.654-1.346-3-3-3h-1.025a4.954 4.954 0 0 0 1.025-3c0-3.185-.274-8.722-1.923-13h2.459c.58 1.123 1.463 3.705 1.463 9 0 1.654 1.346 3 3 3s3-1.346 3-3c0-10.772-3.319-13.819-4.336-14.496zM29.001 32c-.551 0-1-.448-1-1v-2h18v2c0 .552-.449 1-1 1h-2zm2 2h12c2.1 0 3.571 1.363 4.604 3.339.019.053.048.099.076.147 1.866 3.7 2.25 9.426 2.311 12.514h-25.98c.094-4.802.963-16 6.989-16zM18 22v31c0 .351.06.688.171 1H6.001V6h19v3c0 4.268 1.425 8.009 2.357 10H21c-1.654 0-3 1.346-3 3zm23.001 0h-8v-1h8zm3.408-3H29.594c-.71-1.359-2.592-5.402-2.592-10V6h20v3c-.001 4.598-1.883 8.641-2.593 10zM29.001 2h17c.551 0 1 .448 1 1v1h-20V3c0-.552.449-1 1-1zm-21 0h17.184a2.97 2.97 0 0 0-.184 1v1h-19c0-1.102.897-2 2-2zm45 55v5H6v-6h46.001a1 1 0 0 1 1 1zm-26-3a2.997 2.997 0 0 1-2.816-2h25.632a2.996 2.996 0 0 1-2.816 2zM57 48c-.551 0-1-.448-1-1 0-6.484-1.288-9.395-2.055-10.553a1 1 0 0 0-.834-.447h-3.968a9.738 9.738 0 0 0-1.474-2H54c.198 0 .39.059.555.168C54.908 34.403 58 36.757 58 47c0 .552-.449 1-1 1z" data-original="#000000" class=""></path><path d="M40 39h2a1 1 0 1 0 0-2h-2a1 1 0 1 0 0 2zM40 43h2a1 1 0 1 0 0-2h-2a1 1 0 1 0 0 2zM40 47h2a1 1 0 1 0 0-2h-2a1 1 0 1 0 0 2z" data-original="#000000" class=""></path></g></svg>