<svg xmlns="http://www.w3.org/2000/svg" version="1.1" xmlns:xlink="http://www.w3.org/1999/xlink" width="512" height="512" x="0" y="0" viewBox="0 0 496.414 496.414" style="enable-background:new 0 0 512 512" xml:space="preserve" class=""><g><path fill="#d8ecfe" d="m397.019 125.42-4.671 64.558-13.454 186.261-6.137 84.819c-1.442 19.938-17.398 35.358-36.595 35.358H160.251c-19.197 0-35.154-15.419-36.595-35.358l-6.137-84.819-13.454-186.261-4.671-64.558 148.813-16.313z" opacity="1" data-original="#d8ecfe"></path><path fill="#b3dafe" d="m397.016 125.424-4.67 64.55-13.45 186.26-6.14 84.82c-1.44 19.94-17.4 35.36-36.59 35.36h-25c19.2 0 35.15-15.42 36.59-35.36l6.14-84.82 13.46-186.26 4.67-64.55 14.135-6.51z" opacity="1" data-original="#b3dafe"></path><path fill="#b57f5f" d="M409.337 64.248a8.761 8.761 0 0 1-8.214-5.712l-12.667-34.109a12.885 12.885 0 0 0-11.255-8.373L126.812.027A12.885 12.885 0 0 0 113.91 8.4L95.29 58.536a8.762 8.762 0 0 1-8.214 5.712c-7.002 0-12.678 5.676-12.678 12.678v35.587c0 7.128 5.779 12.907 12.907 12.907h321.803c7.128 0 12.907-5.779 12.907-12.907V76.926c0-7.002-5.676-12.678-12.678-12.678z" opacity="1" data-original="#b57f5f"></path><path fill="#9f6e50" d="M422.016 76.924v35.59c0 7.13-5.78 12.91-12.91 12.91h-25c7.13 0 12.91-5.78 12.91-12.91v-35.59c0-7-5.68-12.68-12.68-12.68-3.66 0-6.94-2.27-8.21-5.71l-12.67-34.11c-1.77-4.77-8.07-9.77-13.15-10.09l26.89 1.72c5.08.32 9.49 3.6 11.26 8.37l12.67 34.11a8.744 8.744 0 0 0 8.21 5.71c7 0 12.68 5.68 12.68 12.68z" opacity="1" data-original="#9f6e50"></path><path fill="#e2a975" d="m402.294 198.208-12.008 170.878a7.691 7.691 0 0 1-7.673 7.152H113.8a7.693 7.693 0 0 1-7.673-7.152L94.119 198.208c-.313-4.449 3.212-8.231 7.673-8.231h292.83c4.46 0 7.985 3.782 7.672 8.231z" opacity="1" data-original="#e2a975"></path><path fill="#b57f5f" d="m402.296 198.204-12.01 170.88a7.683 7.683 0 0 1-7.67 7.15h-24.67c4.04 0 7.39-3.12 7.67-7.15l12.01-170.88c.31-4.45-3.21-8.23-7.67-8.23h24.67c4.46 0 7.98 3.78 7.67 8.23zM287.226 271.914v22.39c0 18.09-12.3 33.3-29 37.72l-8.02-2.36-10.51 2.73c-17.46-3.88-30.51-19.46-30.51-38.09v-22.39c0-18.09 12.3-33.3 29-37.72l7.603 1.803 9.877-2.393a38.971 38.971 0 0 1 20.13 10.72c7.06 7.06 11.43 16.81 11.43 27.59z" opacity="1" data-original="#b57f5f"></path><path fill="#9f6e50" d="M287.226 271.914v22.39c0 18.097-12.32 33.316-29.029 37.729l-7.991-2.369-10.509 2.73a39.197 39.197 0 0 1-3.991-1.11c15.42-5.21 26.52-19.8 26.52-36.98v-22.39c0-10.78-4.37-20.53-11.43-27.59a39.09 39.09 0 0 0-15.09-9.39 39.09 39.09 0 0 1 2.478-.743l7.605 1.806 9.864-2.394a38.936 38.936 0 0 1 20.143 10.72c7.06 7.061 11.43 16.811 11.43 27.591z" opacity="1" data-original="#9f6e50"></path><path fill="#fef0ae" d="M258.226 332.024c-3.19.85-6.55 1.3-10.02 1.3-2.92 0-5.77-.32-8.51-.93.66-.8 19.42-24.42 2.74-44.49-16.62-20.01-11.47-41.29-4.25-53.71 3.19-.85 6.55-1.3 10.02-1.3 2.55 0 5.04.24 7.46.71v.01c-.72.87-18.35 24.65-1.69 44.7 16.62 20 11.47 41.29 4.25 53.71z" opacity="1" data-original="#fef0ae"></path></g></svg>