<svg xmlns="http://www.w3.org/2000/svg" version="1.1" xmlns:xlink="http://www.w3.org/1999/xlink" width="512" height="512" x="0" y="0" viewBox="0 0 512 512" style="enable-background:new 0 0 512 512" xml:space="preserve" class=""><g><path fill="#eaf6ff" d="M411.386 494.675H47.5c-22.091 0-40-17.909-40-40h443.886c0 22.092-17.909 40-40 40z" opacity="1" data-original="#eaf6ff"></path><path fill="#d8ecfe" d="M97.5 494.671h-50c-22.09 0-40-17.9-40-40h50c0 22.1 17.91 40 40 40z" opacity="1" data-original="#d8ecfe"></path><path fill="#e9b665" d="M424.816 404.887a79.59 79.59 0 0 1-48.897-16.787l-16.204-12.596c-7.177-5.579-8.472-15.92-2.893-23.098 5.58-7.177 15.919-8.475 23.098-2.893l16.204 12.596a46.71 46.71 0 0 0 51.291 4.02 46.764 46.764 0 0 0 24.164-40.936v-25.968c0-9.321-4.357-17.765-11.953-23.166-7.597-5.4-17.003-6.743-25.809-3.68l-41.458 14.419c-8.584 2.987-17.967-1.552-20.954-10.139-2.987-8.586 1.553-17.968 10.139-20.954l41.458-14.42c18.722-6.513 39.545-3.542 55.699 7.943 16.154 11.486 25.799 30.176 25.799 49.997v25.968a79.693 79.693 0 0 1-41.177 69.759 79.629 79.629 0 0 1-38.507 9.935z" opacity="1" data-original="#e9b665"></path><path fill="#fbc56d" d="M245.4 454.675h-31.915c-90.509 0-163.881-73.372-163.881-163.881v-51.969c0-8.284 6.716-15 15-15h329.677c8.284 0 15 6.716 15 15v51.969c.001 90.509-73.372 163.881-163.881 163.881z" opacity="1" data-original="#fbc56d"></path><path fill="#e9b665" d="M254.45 454.421c-2.99.17-6.01.25-9.05.25h-31.91c-90.51 0-163.89-73.37-163.89-163.88v-51.97c0-8.28 6.72-15 15-15h50c-8.28 0-15 6.72-15 15v51.97c0 87.48 68.54 158.939 154.85 163.63z" opacity="1" data-original="#e9b665"></path><path d="M483.048 243.122c-18.128-12.896-41.497-16.229-62.511-8.922l-3.993 1.388c-1.574-10.878-10.957-19.264-22.264-19.264h-72.36c-4.143 0-7.5 3.357-7.5 7.5s3.357 7.5 7.5 7.5h72.36c4.136 0 7.5 3.364 7.5 7.5v51.97c0 86.229-70.151 156.38-156.38 156.38h-31.91c-40.942 0-79.653-15.714-109.002-44.248a7.503 7.503 0 0 0-10.606.149 7.502 7.502 0 0 0 .149 10.606c14.541 14.137 31.184 25.391 49.197 33.492H7.5a7.499 7.499 0 0 0-7.5 7.5c0 26.191 21.309 47.5 47.5 47.5h293.97c4.143 0 7.5-3.357 7.5-7.5s-3.357-7.5-7.5-7.5H47.5c-15.34 0-28.232-10.683-31.627-25h427.151c-1.367 5.816-4.327 11.156-8.662 15.49-6.123 6.133-14.281 9.51-22.973 9.51H374.16c-4.143 0-7.5 3.357-7.5 7.5s3.357 7.5 7.5 7.5h37.229c12.702 0 24.631-4.94 33.584-13.906 8.974-8.975 13.916-20.905 13.916-33.594 0-4.143-3.357-7.5-7.5-7.5H315.493c24.521-11.034 45.992-27.674 62.784-48.273 13.871 8.739 30.14 13.493 46.544 13.493 14.677 0 29.243-3.76 42.124-10.873C494.735 386.179 512 356.933 512 325.194v-25.971c0-22.25-10.825-43.223-28.952-56.101zm-66.268 47.672v-4.539l19.511-6.79c6.469-2.257 13.391-1.268 18.991 2.71 5.591 3.979 8.798 10.192 8.798 17.049v25.971a39.276 39.276 0 0 1-20.282 34.372 39.25 39.25 0 0 1-40.707-1.671c8.807-20.62 13.689-43.301 13.689-67.102zm80.22 34.4c0 26.277-14.294 50.492-37.306 63.194-10.667 5.891-22.727 9.005-34.874 9.005-13.403 0-26.245-3.639-37.548-10.559a171.424 171.424 0 0 0 9.277-15.335 54.195 54.195 0 0 0 54.496 1.2 54.281 54.281 0 0 0 28.034-47.505v-25.971c0-11.773-5.505-22.442-15.106-29.274-9.616-6.832-21.506-8.527-32.618-4.648l-14.575 5.072v-18.986l8.684-3.019c16.436-5.716 34.712-3.108 48.893 6.979C488.535 265.42 497 281.822 497 299.223zM52.675 350.194a172.006 172.006 0 0 0 14.127 29.301 7.497 7.497 0 0 0 10.299 2.537 7.5 7.5 0 0 0 2.537-10.299 156.942 156.942 0 0 1-12.893-26.739 154.685 154.685 0 0 1-5.78-19.528 157.039 157.039 0 0 1-3.865-34.672v-51.97c0-4.136 3.364-7.5 7.5-7.5h224.64c4.143 0 7.5-3.357 7.5-7.5s-3.357-7.5-7.5-7.5H64.6c-12.406 0-22.5 10.094-22.5 22.5v51.97c0 12.808 1.426 25.589 4.234 37.981a170.005 170.005 0 0 0 6.341 21.419zM219.795 176.959a7.5 7.5 0 0 0 12.41 8.426c33.501-49.338 14.552-73.764-.675-93.39-14.564-18.773-26.068-33.601.539-70.262a7.499 7.499 0 0 0-1.664-10.475 7.497 7.497 0 0 0-10.475 1.664c-33.221 45.771-15.705 68.348-.252 88.267 14.756 19.019 27.499 35.444.117 75.77zM140.613 144.266a7.5 7.5 0 1 0 11.616 9.492c26.401-32.308 10.786-49.03-.615-61.242-10.574-11.325-16.957-18.16.456-38.096a7.5 7.5 0 0 0-11.297-9.867c-26.325 30.137-11.181 46.357-.123 58.2 10.881 11.656 18.071 19.355-.037 41.513zM299.771 144.266a7.5 7.5 0 1 0 11.616 9.492c26.401-32.308 10.787-49.031-.614-61.242-10.575-11.325-16.957-18.161.455-38.096a7.5 7.5 0 0 0-11.297-9.867c-26.325 30.137-11.181 46.356-.122 58.2 10.881 11.656 18.071 19.355-.038 41.513z" fill="#000000" opacity="1" data-original="#000000"></path></g></svg>