<svg xmlns="http://www.w3.org/2000/svg" version="1.1" xmlns:xlink="http://www.w3.org/1999/xlink" width="512" height="512" x="0" y="0" viewBox="0 0 512 512" style="enable-background:new 0 0 512 512" xml:space="preserve" class=""><g><path fill="#e53950" d="M382.065 435.447h-72.947c-9.237 0-16.725-7.488-16.725-16.725s7.488-16.725 16.725-16.725h72.947c15.569 0 28.235-12.666 28.235-28.235v-94.998c0-15.569-12.667-28.235-28.235-28.235h-72.947c-9.237 0-16.725-7.488-16.725-16.725s7.488-16.725 16.725-16.725h72.947c34.014 0 61.686 27.672 61.686 61.686v94.998c.001 34.012-27.671 61.684-61.686 61.684z" opacity="1" data-original="#e53950" class=""></path><path fill="#e53950" d="M309.248 512H110.062c-23.093 0-41.813-18.72-41.813-41.813V152.276c0-6.004 4.867-10.871 10.871-10.871h261.07c6.004 0 10.871 4.867 10.871 10.871v317.911c0 23.093-18.72 41.813-41.813 41.813z" opacity="1" data-original="#e53950" class=""></path><path fill="#e5eef9" d="m165.44 193.804-42.47 46.247a13.38 13.38 0 0 0-3.525 9.05v81.752a8.363 8.363 0 0 0 8.363 8.363h75.264a8.363 8.363 0 0 0 8.363-8.363v-81.752c0-3.352-1.258-6.582-3.525-9.05z" opacity="1" data-original="#e5eef9"></path><path fill="#7a8c98" d="M165.44 229.39a7.61 7.61 0 0 1-7.611-7.611v-80.374a7.61 7.61 0 1 1 15.222 0v80.374a7.612 7.612 0 0 1-7.611 7.611z" opacity="1" data-original="#7a8c98"></path><path fill="#b3ceec" d="M203.566 121.884a7.61 7.61 0 0 1-7.611-7.611c0-11.246 4.115-17.253 7.421-22.079 2.762-4.031 4.757-6.944 4.757-13.476s-1.996-9.445-4.757-13.476c-3.306-4.827-7.421-10.833-7.421-22.08 0-11.245 4.115-17.251 7.422-22.077 2.762-4.03 4.757-6.943 4.757-13.473 0-4.204 3.408-7.611 7.612-7.611s7.611 3.408 7.611 7.611c0 11.245-4.115 17.251-7.422 22.077-2.762 4.03-4.757 6.943-4.757 13.473 0 6.532 1.996 9.445 4.757 13.476 3.306 4.827 7.421 10.833 7.421 22.079s-4.115 17.253-7.421 22.079c-2.762 4.031-4.757 6.944-4.757 13.476a7.613 7.613 0 0 1-7.612 7.612zM146.03 121.884a7.61 7.61 0 0 1-7.611-7.611c0-11.246 4.115-17.253 7.421-22.079 2.762-4.031 4.757-6.944 4.757-13.476s-1.996-9.445-4.757-13.476c-3.306-4.827-7.421-10.833-7.421-22.08 0-11.245 4.115-17.251 7.422-22.077 2.762-4.03 4.757-6.943 4.757-13.473a7.61 7.61 0 1 1 15.222 0c0 11.245-4.115 17.251-7.422 22.077-2.762 4.03-4.757 6.943-4.757 13.473 0 6.532 1.996 9.445 4.757 13.476 3.306 4.827 7.421 10.833 7.421 22.079s-4.115 17.253-7.421 22.079c-2.762 4.031-4.757 6.944-4.757 13.476a7.61 7.61 0 0 1-7.611 7.612zM261.101 121.884a7.612 7.612 0 0 1-7.612-7.611c0-11.246 4.115-17.253 7.421-22.079 2.762-4.031 4.757-6.944 4.757-13.476s-1.995-9.445-4.757-13.476c-3.306-4.827-7.421-10.833-7.421-22.08 0-11.245 4.115-17.251 7.421-22.077 2.762-4.03 4.757-6.943 4.757-13.473a7.612 7.612 0 0 1 15.223 0c0 11.245-4.115 17.251-7.421 22.077-2.762 4.03-4.757 6.943-4.757 13.473 0 6.532 1.995 9.445 4.757 13.476 3.306 4.827 7.421 10.833 7.421 22.079s-4.115 17.253-7.421 22.079c-2.762 4.031-4.757 6.944-4.757 13.476a7.61 7.61 0 0 1-7.611 7.612z" opacity="1" data-original="#b3ceec"></path><g fill="#ca2e43"><path d="M382.065 217.077H341.79c26.123 0 48.489 16.33 57.468 39.311 6.708 5.167 11.042 13.272 11.042 22.375v94.998c0 9.103-4.334 17.208-11.042 22.375-8.979 22.981-31.345 39.311-57.468 39.311h40.275c34.014 0 61.686-27.672 61.686-61.686v-94.998c0-34.014-27.671-61.686-61.686-61.686z" fill="#ca2e43" opacity="1" data-original="#ca2e43"></path><path d="M340.19 141.404h-40.275c6.004 0 10.871 4.867 10.871 10.871v317.911c0 23.093-18.72 41.813-41.813 41.813h40.275c23.093 0 41.813-18.72 41.813-41.813v-317.91c0-6.004-4.867-10.872-10.871-10.872z" fill="#ca2e43" opacity="1" data-original="#ca2e43"></path></g></g></svg>