<svg xmlns="http://www.w3.org/2000/svg" version="1.1" xmlns:xlink="http://www.w3.org/1999/xlink" width="512" height="512" x="0" y="0" viewBox="0 0 511 512" style="enable-background:new 0 0 512 512" xml:space="preserve" class=""><g><path fill="#c9f3ff" d="m411.063 99.113-25.184 151.39a142.687 142.687 0 0 1-59.965 94.208c-38.75 26.617-88.121 32.445-132 15.574a202.769 202.769 0 0 1-54.812-31.644A142.7 142.7 0 0 1 86.59 206.539a142.708 142.708 0 0 1 51.601-99.035L256.711 10zm0 0" opacity="1" data-original="#c9f3ff"></path><path fill="#ff5d5d" d="M325.914 344.71a142.687 142.687 0 0 0 59.965-94.206l6.086-36.574-1.422-1.375s-57.184 46.828-152.3-4.375c-95.118-51.207-151.212-2.075-151.212-2.075l-.437.403v.031a142.68 142.68 0 0 0 52.511 122.102 202.85 202.85 0 0 0 54.81 31.644c43.878 16.871 93.25 11.043 132-15.574zm0 0" opacity="1" data-original="#ff5d5d"></path><path fill="#fccf9d" d="M287.93 501.996 201.828 465.7a267.41 267.41 0 0 1-100.445-73.89 397.5 397.5 0 0 1-90.695-206.832c-1.805-14.329 9.363-26.989 23.804-26.989 11.242 0 20.977 7.805 23.418 18.778a344.783 344.783 0 0 0 92.727 168.828l38.027 38.023c8.61 8.613 22.57 8.613 31.18 0 8.613-8.61 8.613-22.57 0-31.18l-64.188-64.19c-11.386-11.388-11.386-29.852 0-41.24 11.387-11.386 29.852-11.386 41.242 0l14.426 14.427a308.29 308.29 0 0 0 107.746 69.91A308.368 308.368 0 0 1 452.422 430.3l30.648 39.508v32.187zm0 0" opacity="1" data-original="#fccf9d"></path><path d="m490.969 463.68-30.645-39.508a318.262 318.262 0 0 0-107.554-88.8c22.593-22.474 37.718-51.622 42.976-83.227l25.18-151.387a9.992 9.992 0 0 0-4.864-10.301L261.712 1.34a10 10 0 0 0-11.356.937L131.84 99.781c-31.863 26.215-51.988 64.84-55.219 105.977-.027.347-.039.691-.066 1.035a335.657 335.657 0 0 1-8.883-32.203c-3.488-15.664-17.133-26.602-33.18-26.602-9.75 0-19.043 4.196-25.492 11.508s-9.453 17.055-8.234 26.73c9.863 78.368 42.015 151.688 92.976 212.036 5.969 7.07 12.32 13.816 18.973 20.25L93.14 452.418l-53.555-30.922c-4.785-2.762-10.902-1.121-13.66 3.66-2.762 4.785-1.125 10.899 3.66 13.66l124.43 71.84a9.998 9.998 0 0 0 13.66-3.66c2.762-4.781 1.12-10.898-3.66-13.66l-53.555-30.918 17.453-30.23c21.078 17.578 44.742 32.066 70.031 42.726l86.098 36.297c1.27.535 2.586.789 3.883.789 3.898 0 7.61-2.297 9.219-6.117 2.144-5.09-.243-10.953-5.329-13.102l-86.101-36.293c-37.207-15.687-70.645-40.281-96.692-71.129C60.563 327.973 29.988 258.25 20.61 183.73c-.511-4.042.696-7.949 3.391-11.003 2.691-3.055 6.418-4.739 10.492-4.739 6.606 0 12.223 4.504 13.656 10.953 9.86 44.262 27.993 85.891 53.293 122.922a155.14 155.14 0 0 0 4.22 6.047 355.705 355.705 0 0 0 37.905 44.754l38.024 38.027c6.055 6.055 14.105 9.387 22.664 9.387s16.61-3.332 22.664-9.387c12.492-12.496 12.492-32.828 0-45.324L162.73 281.18a19.038 19.038 0 0 1-5.613-13.551c0-5.117 1.992-9.93 5.613-13.547 7.47-7.473 19.625-7.473 27.098 0l14.426 14.426c31.805 31.808 69.234 56.094 111.242 72.18a298.28 298.28 0 0 1 129.024 95.746l30.648 39.507c3.383 4.364 9.668 5.157 14.031 1.77 4.363-3.387 5.156-9.668 1.77-14.031zM144.547 115.227 257.71 22.125l25.394 14.66-53.718 44.192c-4.262 3.511-4.875 9.812-1.367 14.078a9.978 9.978 0 0 0 7.73 3.644 9.967 9.967 0 0 0 6.348-2.277l59.507-48.957 98.454 56.844-16.84 101.242c-7.574 5.414-58.617 37.762-140.235-6.176-51.859-27.922-92.918-26.934-118.23-21.188-9.883 2.243-18.211 5.368-24.89 8.493 6.734-27.809 22.402-53.125 44.683-71.453zm59.707 264.851a11.96 11.96 0 0 1-8.52-3.531l-7.922-7.918c.836.332 1.668.668 2.512.992a152.983 152.983 0 0 0 22.625 6.734c-.062.063-.113.133-.176.196a11.973 11.973 0 0 1-8.52 3.527zm14.14-125.715-14.425-14.425c-15.27-15.27-40.114-15.27-55.383 0-7.395 7.394-11.473 17.23-11.473 27.69 0 10.462 4.075 20.294 11.473 27.692l59.059 59.059a131.693 131.693 0 0 1-10.145-3.426 192.74 192.74 0 0 1-52.11-30.086 132.814 132.814 0 0 1-23.41-24.52 342.84 342.84 0 0 1-3.914-5.605 132.648 132.648 0 0 1-21.77-79.129c11.61-8.105 60.493-35.925 137.208 5.371 35.898 19.325 66.746 25.098 90.793 25.098 10.629 0 19.933-1.125 27.75-2.71 10.894-2.208 19.937-5.462 26.992-8.665l-3.023 18.156c-4.977 29.922-20.13 57.317-42.766 77.43a324.74 324.74 0 0 0-10.602-4.285c-39.37-15.078-74.445-37.836-104.253-67.645zm0 0" fill="#000000" opacity="1" data-original="#000000"></path><path d="M208.723 120.93c2.629 0 5.21-1.07 7.07-2.93s2.93-4.441 2.93-7.07c0-2.63-1.07-5.211-2.93-7.07a10.066 10.066 0 0 0-7.07-2.93c-2.63 0-5.211 1.07-7.07 2.93s-2.93 4.44-2.93 7.07c0 2.629 1.07 5.21 2.93 7.07s4.44 2.93 7.07 2.93zm0 0" fill="#000000" opacity="1" data-original="#000000"></path></g></svg>